<svg xmlns="http://www.w3.org/2000/svg"  viewBox="0 0 64 64" width="60px" height="60px"><linearGradient id="xdLtpSHP2CkNDpbSoY~Fxa" x1="21" x2="21" y1="811.667" y2="768.703" gradientTransform="matrix(1 0 0 -1 0 822)" gradientUnits="userSpaceOnUse" spreadMethod="reflect"><stop offset="0" stop-color="#1a6dff"/><stop offset="1" stop-color="#c822ff"/></linearGradient><path fill="url(#xdLtpSHP2CkNDpbSoY~Fxa)" d="M19 25H23V27H19z"/><linearGradient id="xdLtpSHP2CkNDpbSoY~Fxb" x1="46" x2="46" y1="24" y2="34" gradientUnits="userSpaceOnUse" spreadMethod="reflect"><stop offset="0" stop-color="#6dc7ff"/><stop offset="1" stop-color="#e6abff"/></linearGradient><path fill="url(#xdLtpSHP2CkNDpbSoY~Fxb)" d="M53,31c0,1.654,1.346,3,3,3s3-1.346,3-3v-4c0-1.654-1.346-3-3-3H37c-2.206,0-4,1.794-4,4 s1.794,4,4,4s4-1.794,4-4c0-0.732-0.212-1.409-0.556-2H53V31z M56,26c0.552,0,1,0.448,1,1v4c0,0.552-0.448,1-1,1s-1-0.448-1-1v-5H56 z M39,28c0,1.103-0.897,2-2,2s-2-0.897-2-2s0.897-2,2-2S39,26.897,39,28z"/><linearGradient id="xdLtpSHP2CkNDpbSoY~Fxc" x1="38" x2="38" y1="774.375" y2="767.864" gradientTransform="matrix(1 0 0 -1 0 822)" gradientUnits="userSpaceOnUse" spreadMethod="reflect"><stop offset="0" stop-color="#6dc7ff"/><stop offset="1" stop-color="#e6abff"/></linearGradient><path fill="url(#xdLtpSHP2CkNDpbSoY~Fxc)" d="M37 48H39V54H37z"/><linearGradient id="xdLtpSHP2CkNDpbSoY~Fxd" x1="48" x2="48" y1="806.667" y2="763.703" gradientTransform="matrix(1 0 0 -1 0 822)" gradientUnits="userSpaceOnUse" spreadMethod="reflect"><stop offset="0" stop-color="#1a6dff"/><stop offset="1" stop-color="#c822ff"/></linearGradient><path fill="url(#xdLtpSHP2CkNDpbSoY~Fxd)" d="M45 34H51V36H45z"/><linearGradient id="xdLtpSHP2CkNDpbSoY~Fxe" x1="48" x2="48" y1="806.667" y2="763.703" gradientTransform="matrix(1 0 0 -1 0 822)" gradientUnits="userSpaceOnUse" spreadMethod="reflect"><stop offset="0" stop-color="#1a6dff"/><stop offset="1" stop-color="#c822ff"/></linearGradient><path fill="url(#xdLtpSHP2CkNDpbSoY~Fxe)" d="M45 30H51V32H45z"/><linearGradient id="xdLtpSHP2CkNDpbSoY~Fxf" x1="35" x2="35" y1="15.333" y2="58.297" gradientUnits="userSpaceOnUse" spreadMethod="reflect"><stop offset="0" stop-color="#1a6dff"/><stop offset="1" stop-color="#c822ff"/></linearGradient><path fill="url(#xdLtpSHP2CkNDpbSoY~Fxf)" d="M53,36v2H27V22c0-1.538-0.586-2.937-1.541-4H50c1.657,0,3,1.343,3,3v1h2v-1 c0-2.761-2.239-5-5-5H21c-3.314,0-6,2.686-6,6v19c0,1.657,1.343,3,3,3h8h5v2c0,1.103,0.897,2,2,2v8H23v2h24v-2h-4v-8 c1.103,0,2-0.897,2-2v-2h7c1.657,0,3-1.343,3-3v-5H53z M25,42h-7c-0.552,0-1-0.448-1-1l0-18.823c0-2.088,1.523-3.956,3.601-4.158 C22.986,17.787,25,19.662,25,22V42z M41,56h-6v-8h6V56z M43,46H33v-2h10V46z M53,41c0,0.552-0.448,1-1,1H27v-2h26V41z"/></svg>